<svg width="50" height="50" viewBox="0 0 50 50" fill="none" xmlns="http://www.w3.org/2000/svg">
<path d="M34.0344 18.4632H30.7725V8.20589C30.7725 7.07758 29.8494 6.15442 28.721 6.15442H20.5152C19.3869 6.15442 18.4637 7.07758 18.4637 8.20589V18.4632H15.2019C13.376 18.4632 12.4529 20.6788 13.7453 21.9713L23.1616 31.3875C23.9616 32.1876 25.2541 32.1876 26.0541 31.3875L35.4704 21.9713C36.7628 20.6788 35.8602 18.4632 34.0344 18.4632ZM10.2578 38.9779C10.2578 40.1063 11.181 41.0294 12.3093 41.0294H36.9269C38.0552 41.0294 38.9784 40.1063 38.9784 38.9779C38.9784 37.8496 38.0552 36.9265 36.9269 36.9265H12.3093C11.181 36.9265 10.2578 37.8496 10.2578 38.9779Z" fill="#0D1B54"/>
</svg>
