<svg width="82" height="82" viewBox="0 0 82 82" fill="none" xmlns="http://www.w3.org/2000/svg">
<g clip-path="url(#clip0_575_262)">
<path fill-rule="evenodd" clip-rule="evenodd" d="M33.0807 62.0615C31.6937 61.7561 30.3361 61.3488 29.008 60.8397C27.7128 60.3537 26.4746 59.7278 25.3154 58.973C23.2988 57.6936 21.6262 55.9399 20.4435 53.8651C19.2609 51.7903 18.6042 49.4575 18.5309 47.0705C18.3761 42.2625 19.8734 37.5467 22.7733 33.7086C24.6214 31.1336 27.0187 29.0017 29.792 27.4671C32.5984 25.9824 35.681 25.0927 38.847 24.8538C43.0561 24.6103 47.2419 25.6297 50.8677 27.7813C54.4935 29.9328 57.3939 33.1184 59.1971 36.9294C60.2724 38.7307 60.9717 40.731 61.2529 42.8099C61.534 44.8888 61.3912 47.0031 60.833 49.0253C60.2748 51.0475 59.3128 52.9356 58.005 54.5759C56.6973 56.2162 55.0708 57.5746 53.2237 58.5692C53.0707 58.6568 52.9367 58.7742 52.8297 58.9144C52.7226 59.0546 52.6447 59.2148 52.6004 59.3855C52.5561 59.5562 52.5464 59.7341 52.5719 59.9087C52.5973 60.0832 52.6574 60.2509 52.7486 60.4019C52.8329 60.5538 52.9471 60.6871 53.0843 60.7938C53.2214 60.9005 53.3787 60.9783 53.5467 61.0227C53.7147 61.0671 53.89 61.0771 54.0619 61.052C54.2339 61.027 54.399 60.9675 54.5474 60.877C65.4351 54.9037 66.6909 44.223 62.5876 35.3003C60.5259 30.7621 57.1772 26.9291 52.9568 24.2769C48.7365 21.6246 43.8303 20.2698 38.847 20.3806C35.0282 20.6328 31.3114 21.7207 27.9593 23.5675C23.8136 25.9048 20.4289 29.3867 18.2098 33.5968C15.9907 37.8069 15.0311 42.567 15.4458 47.3081C15.6077 50.1415 16.4504 52.8941 17.9027 55.3325C19.3549 57.7708 21.3738 59.8229 23.7881 61.3148C25.1457 62.0977 26.5711 62.7313 28.0645 63.2155C29.5012 63.7132 30.9697 64.0979 32.4698 64.3694C32.7846 64.4296 33.1103 64.3637 33.377 64.1859C33.6436 64.0082 33.8297 63.7328 33.8953 63.4191C33.9501 63.1323 33.8974 62.8353 33.7471 62.5848C33.5969 62.3344 33.3596 62.1481 33.0807 62.0615Z" fill="#0C6FFF"/>
<path fill-rule="evenodd" clip-rule="evenodd" d="M40.4001 57.0425C41.9335 56.7397 43.3631 56.047 44.5508 55.031C45.7386 54.0151 46.6445 52.7102 47.1812 51.2422C47.2691 51.0897 47.3249 50.9208 47.345 50.746C47.3652 50.5711 47.3494 50.394 47.2985 50.2255C47.2476 50.0569 47.1628 49.9006 47.0492 49.7661C46.9357 49.6316 46.7958 49.5218 46.6382 49.4434C46.4857 49.3555 46.3168 49.2998 46.1419 49.2796C45.9671 49.2594 45.7899 49.2753 45.6214 49.3261C45.4529 49.377 45.2966 49.4618 45.1621 49.5754C45.0276 49.689 44.9178 49.8289 44.8394 49.9865C44.1789 50.9946 43.232 51.7822 42.1203 52.2479C41.0087 52.7136 39.7832 52.8362 38.6013 52.5998C37.9034 52.5186 37.219 52.3475 36.565 52.0907C34.8081 51.53 33.291 50.3943 32.2581 48.8665C32.2022 48.7025 32.1102 48.5531 31.9887 48.4296C31.8673 48.306 31.7196 48.2114 31.5566 48.1527C31.3936 48.094 31.2194 48.0728 31.0471 48.0906C30.8748 48.1084 30.7087 48.1648 30.5611 48.2556C30.2735 48.3821 30.0477 48.6174 29.9332 48.91C29.8187 49.2026 29.8248 49.5286 29.9502 49.8168C30.6595 52.3622 32.292 54.5547 34.532 55.9598C35.5705 56.5639 36.7245 56.944 37.9226 57.0764C38.7484 57.1895 39.5743 57.1782 40.4001 57.0425Z" fill="#0C6FFF"/>
<path fill-rule="evenodd" clip-rule="evenodd" d="M81.0664 42.2548C80.8569 41.3543 80.5258 40.4865 80.0822 39.6754C79.2806 38.251 78.1913 37.0091 76.8836 36.0286C75.5759 35.0481 74.0785 34.3506 72.4865 33.9804C72.2256 31.9855 71.8172 30.0128 71.2647 28.0783C70.0084 23.739 67.8186 19.7269 64.8485 16.323C61.8785 12.9191 58.2001 10.2058 54.071 8.37309C49.7037 6.72189 45.0463 5.97573 40.3817 6.17994C35.7172 6.38414 31.1428 7.53444 26.9365 9.56097C22.6101 11.3308 18.7852 14.1374 15.7987 17.7334C12.8123 21.3295 10.7559 25.6047 9.81066 30.1825C9.81066 30.9971 9.81066 31.8116 9.60702 32.6262C7.88206 32.9481 6.25049 33.6503 4.83094 34.6818C3.41138 35.7133 2.2395 37.0482 1.40048 38.5893C0.957001 39.4039 0.62892 40.2637 0.416234 41.1687C-0.138745 43.0496 -0.138745 45.0508 0.416234 46.9316C0.921775 48.3497 1.77265 49.6195 2.89199 50.6262C4.01133 51.633 5.36386 52.345 6.82738 52.6979C7.49938 52.9106 8.18948 53.0577 8.89769 53.1391C9.58553 53.207 10.2745 53.207 10.9646 53.1391C11.2753 53.1284 11.5729 53.0113 11.8077 52.8074C12.0424 52.6035 12.2001 52.3253 12.2543 52.0191C12.392 52.0853 12.5428 52.1197 12.6955 52.1197C12.8483 52.1197 12.9991 52.0853 13.1367 52.0191C13.3445 51.9254 13.5198 51.7722 13.6406 51.5789C13.7614 51.3857 13.8223 51.1609 13.8155 50.9331C13.0211 47.5916 12.5214 44.1869 12.3222 40.7581C12.1321 37.4082 12.3697 34.0449 13.0349 30.7527C14.1008 26.8498 16.0852 23.2586 18.8225 20.2793C21.5598 17.2999 24.9703 15.0189 28.7692 13.6269C32.4508 11.8633 36.4485 10.8556 40.5261 10.6632C44.6037 10.4708 48.6786 11.0977 52.5098 12.5069C56.1166 14.0258 59.355 16.3019 62.0057 19.181C64.6565 22.0601 66.6578 25.4752 67.8742 29.1949C70.4363 36.9412 70.2082 45.3397 67.2293 52.9355C67.1634 53.0981 67.1305 53.2721 67.1324 53.4475C67.1343 53.6229 67.1711 53.7961 67.2406 53.9572C67.3101 54.1182 67.4108 54.2638 67.5371 54.3856C67.6633 54.5074 67.8125 54.6028 67.976 54.6664C68.1852 54.7363 68.4116 54.7363 68.6208 54.6664C67.678 56.6389 66.5411 58.5125 65.2269 60.2596C63.9711 61.96 62.505 63.4873 60.8521 64.8075C58.3152 67.0938 55.0417 68.3934 51.6274 68.4696C51.4765 68.1958 51.2335 67.9842 50.9415 67.8724C50.6496 67.7606 50.3274 67.7557 50.0322 67.8587C49.6996 67.9942 49.4343 68.2561 49.2943 68.5869C49.1544 68.9176 49.1512 69.2904 49.2856 69.6235C49.2856 70.0647 49.2856 70.3702 48.8443 70.6756C48.3013 71.0829 47.6565 71.3442 46.9811 71.4189C46.0334 71.5994 45.0564 71.5529 44.1302 71.2832C43.1919 71.0527 42.3137 70.6245 41.5542 70.0274C40.9772 69.6201 40.536 69.3486 40.7396 68.9413C40.9968 68.4475 41.3997 68.0446 41.8936 67.7874L44.2014 67.0407C44.8526 66.9364 45.5105 66.8797 46.1699 66.871H48.2708C48.5718 66.9201 48.8799 66.8481 49.1279 66.6707C49.376 66.4932 49.5437 66.2248 49.5944 65.9241C49.6239 65.7703 49.6226 65.6122 49.5908 65.4589C49.5589 65.3055 49.497 65.16 49.4087 65.0307C49.3204 64.9014 49.2074 64.7908 49.0761 64.7053C48.9449 64.6198 48.7981 64.5611 48.6441 64.5326L44.1302 63.7859C43.5554 63.737 42.9775 63.737 42.4027 63.7859C41.7926 63.8339 41.1895 63.9477 40.6039 64.1253C39.6425 64.3661 38.7583 64.8475 38.0345 65.5244C37.3107 66.2013 36.7711 67.0514 36.4667 67.9944C36.2444 69.068 36.3677 70.1844 36.8189 71.1837C37.2701 72.1829 38.0259 73.0137 38.9782 73.5571C40.3357 74.4531 41.8766 75.0301 43.4887 75.2541C45.0262 75.4068 46.5806 75.2099 48.0332 74.6771C49.4247 74.151 50.6092 73.2007 51.4271 71.9619C51.5719 71.6452 51.6851 71.3171 51.7665 70.9777C55.2809 71.4459 58.8522 70.7547 61.9382 69.0092C64.7517 67.3784 67.0904 65.0409 68.7226 62.2281C70.2037 59.7944 71.2478 57.1204 71.8077 54.327H72.758C73.4595 54.2139 74.1496 54.0555 74.8283 53.8519C76.2418 53.4587 77.5387 52.7283 78.6075 51.7233C79.6764 50.7183 80.4852 49.4688 80.9646 48.0822C81.5784 46.1921 81.6139 44.1652 81.0664 42.2548ZM9.30157 50.2577C8.81589 50.0925 8.33998 49.8998 7.87611 49.6807C7.08315 49.2938 6.38759 48.7331 5.84114 48.0403C5.29469 47.3476 4.91139 46.5406 4.71975 45.6793C4.49276 44.5604 4.49391 43.4072 4.72314 42.2887C4.95956 40.8976 5.4903 39.5731 6.27988 38.4036C7.06946 37.2342 8.09966 36.2468 9.30157 35.5076C9.26763 37.3653 9.33551 39.2183 9.5052 41.0669C9.8446 44.4065 10.4793 47.7122 11.4058 50.9365C11.2022 50.9365 11.0664 50.6989 10.8288 50.6989L9.30157 50.2577ZM73.7423 50.7328C68.6174 53.2104 73.4029 47.5459 72.8259 36.76C74.9677 38.3228 76.4155 40.6594 76.8613 43.273C77.0853 44.393 77.0853 45.5469 76.8613 46.6669C76.6702 47.5507 76.2764 48.378 75.711 49.0836C75.1456 49.7891 74.424 50.3537 73.6031 50.7328H73.7423Z" fill="#020202"/>
<path fill-rule="evenodd" clip-rule="evenodd" d="M29.9944 35.708C29.3807 35.6927 28.7698 35.7964 28.1956 36.0135C26.9059 36.5226 25.752 37.31 24.8017 38.3214C24.5374 38.489 24.3499 38.7541 24.28 39.0592C24.2101 39.3642 24.2634 39.6845 24.4283 39.9505C24.9035 40.7989 31.2162 39.9505 32.438 39.9505C32.9788 39.9731 33.5094 40.0636 34.0298 40.222C34.3381 40.4019 34.7038 40.4565 35.0513 40.3744C35.3987 40.2923 35.7013 40.0797 35.8964 39.7808C36.0745 39.4776 36.1281 39.1172 36.0458 38.7753C35.9635 38.4335 35.7518 38.1369 35.4552 37.948C34.4398 36.9363 33.1755 36.2105 31.7898 35.8438C31.2019 35.6986 30.5973 35.6527 29.9944 35.708ZM54.5835 39.9471C54.7454 39.677 54.7934 39.3537 54.717 39.0482C54.6407 38.7427 54.4461 38.4801 54.1762 38.318C53.2416 37.2939 52.0789 36.5044 50.7823 36.0135C50.208 35.7964 49.5972 35.6927 48.9835 35.708C48.3692 35.6741 47.7481 35.742 47.1541 35.9117C45.7715 36.2857 44.5089 37.0105 43.4887 38.0159C43.1983 38.2106 42.9943 38.5099 42.9191 38.8513C42.8438 39.1927 42.9032 39.5499 43.0848 39.8486C43.2741 40.1544 43.5769 40.3726 43.9269 40.4553C44.2768 40.5381 44.6453 40.4785 44.9515 40.2899C45.4696 40.1315 46.0013 40.041 46.5466 40.0183C50.3784 39.7129 53.8707 41.1689 54.5835 39.9471Z" fill="#0C6FFF"/>
</g>
<defs>
<clipPath id="clip0_575_262">
<rect width="81.4545" height="81.4545" fill="white"/>
</clipPath>
</defs>
</svg>
