<svg width="59" height="59" viewBox="0 0 59 59" fill="none" xmlns="http://www.w3.org/2000/svg">
<g clip-path="url(#clip0_327_2138)">
<path d="M49.2261 42.7525C49.2261 53.7825 40.2927 53.7825 29.1716 53.7825C18.0505 53.7825 9.11719 53.7825 9.11719 42.7525C9.11719 31.7226 18.1417 13.6736 29.1716 13.6736C40.2016 13.6736 49.2261 31.6314 49.2261 42.7525Z" fill="#DBB471"/>
<path opacity="0.5" d="M49.2313 42.7525C49.2313 39.0151 48.2286 34.4573 46.4054 30.0818C46.7701 32.9076 46.0408 37.9213 37.3809 39.8355C25.0748 42.4791 31.4558 45.943 26.6245 46.3988C22.5224 46.7634 11.5836 45.1226 9.39588 38.924C9.21356 40.2913 9.03125 41.5675 9.03125 42.8437C9.12241 53.7825 18.1469 53.7825 29.1768 53.7825C40.2068 53.7825 49.2313 53.7825 49.2313 42.7525Z" fill="#89664C"/>
<path d="M34.5566 37.4652C34.192 35.6421 32.6423 35.0952 31.0015 35.004V32.4516C31.4573 32.6339 32.0042 32.9074 32.3689 33.1809C33.0981 33.6367 33.8274 32.4516 33.0981 31.9958C32.46 31.6312 31.7308 31.2666 31.0015 30.9931V27.9849C31.0015 27.0734 29.6342 27.0734 29.6342 27.9849V30.6285C28.9049 30.5373 28.1757 30.5373 27.4464 30.6285C27.3553 29.9904 27.1729 29.3523 26.9906 28.7142C26.8083 27.8026 25.441 28.1673 25.7144 29.0788C25.8967 29.7169 25.9879 30.355 26.1702 30.9931C26.0791 30.9931 26.0791 30.9931 25.9879 31.0843C24.1648 31.8135 22.9797 33.6366 24.3471 35.3686C24.9852 36.189 25.8056 36.4625 26.7172 36.6448C26.8083 37.8299 26.8083 39.0149 26.8083 40.1999C26.1702 39.8353 25.6233 39.2884 25.1675 38.8326C24.5294 38.1945 23.6178 39.1972 24.1648 39.8353C24.9852 40.7469 25.8967 41.385 26.8083 41.8407C26.8083 42.8435 26.8995 43.8462 26.9906 44.8489C27.0818 45.7605 28.4491 45.7605 28.358 44.8489C28.2668 43.9373 28.1757 43.1169 28.1757 42.2054C28.7226 42.2965 29.2695 42.2965 29.8165 42.2965C29.9076 43.2081 29.9988 44.1197 30.0899 45.1224C30.1811 46.0339 31.5485 46.0339 31.4573 45.1224C31.3661 44.1197 31.275 43.1169 31.1838 42.023C33.1893 41.2938 35.0124 39.7441 34.5566 37.4652ZM29.6342 31.9958V35.004C29.1784 35.004 28.8138 35.0952 28.4491 35.0952H27.9933L27.7199 31.8135C28.358 31.8135 28.9961 31.9047 29.6342 31.9958ZM26.3525 34.9128C25.9879 34.8217 25.6233 34.5482 25.2587 34.2747C24.4382 33.4543 25.6233 32.7251 26.3525 32.3605C26.4437 33.272 26.5348 34.0924 26.626 35.004C26.5348 35.004 26.4437 35.004 26.3525 34.9128ZM29.3607 40.7469C28.9049 40.838 28.5403 40.7469 28.1757 40.6557C28.0845 39.2884 28.0845 37.921 28.0845 36.4625C28.6314 36.4625 29.1784 36.3713 29.7253 36.3713C29.7253 37.8299 29.8165 39.1972 29.8165 40.6557C29.6342 40.7469 29.543 40.7469 29.3607 40.7469ZM32.3689 39.7441C32.0042 40.0176 31.5485 40.1999 31.1838 40.3822C31.0927 39.0149 31.0927 37.7387 31.0927 36.3713H31.5485C33.2804 36.736 33.7362 38.6503 32.3689 39.7441Z" fill="#89664C"/>
<path d="M30.9911 50.1362H28.8945V53.7824L37.3721 58.3403L56.515 52.4151V49.2246L49.4959 45.1226L30.9911 50.1362Z" fill="#699635"/>
<path d="M29.1719 48.0396C29.1719 48.0396 31.3596 51.5947 37.5583 54.694C37.5583 54.694 47.2209 54.2383 56.5188 48.0396C56.5188 48.0396 51.1406 45.3961 49.5909 41.9321C49.5909 41.9321 45.9447 47.0369 29.1719 48.0396Z" fill="#83BF4F"/>
<path d="M25.0667 50.0454L27.0722 49.9543L27.3456 53.3271L19.415 58.3407L0.363313 54.2386L0.0898438 51.2305L6.56196 46.7638L25.0667 50.0454Z" fill="#699635"/>
<path d="M26.6177 47.9484C26.6177 47.9484 24.7034 51.5036 18.9606 54.8763C18.9606 54.8763 9.57144 55.1498 0 50.1362C0 50.1362 5.10477 47.2192 6.2898 43.7552C6.2898 43.7552 10.3007 48.3131 26.6177 47.9484Z" fill="#83BF4F"/>
<path d="M22.0647 48.9514C22.0647 48.9514 21.7912 49.6806 23.0674 49.7718L19.6946 52.5976C19.6946 52.5976 17.6892 52.4153 17.2334 53.7827C17.2334 53.7827 9.0293 52.8711 3.74222 50.501C3.74222 50.501 4.8361 49.6806 3.46875 49.1337C3.46875 49.1337 5.01841 48.0398 5.38304 47.0371C5.38304 47.0371 6.84154 47.2194 7.29732 46.1255C7.47964 46.0344 12.949 49.316 22.0647 48.9514Z" stroke="#699635" stroke-width="0.911565" stroke-miterlimit="10"/>
<path d="M8.02494 50.2275C8.98149 50.2275 9.75692 49.6969 9.75692 49.0425C9.75692 48.388 8.98149 47.8574 8.02494 47.8574C7.0684 47.8574 6.29297 48.388 6.29297 49.0425C6.29297 49.6969 7.0684 50.2275 8.02494 50.2275Z" fill="#699635"/>
<path d="M17.3241 47.5839C17.3241 47.5839 15.2275 50.3186 10.6696 54.056L10.9431 56.5173L7.75263 55.788L7.57031 53.1445C7.57031 53.1445 12.2193 48.8601 13.222 46.7635C13.1309 46.7635 14.7717 47.3105 17.3241 47.5839ZM38.3812 46.9458C38.3812 46.9458 39.2016 49.1336 45.4003 53.1445V55.788L48.9554 54.6941V51.9594C48.9554 51.9594 44.671 48.9513 42.1186 45.9431L38.3812 46.9458Z" fill="#F9F3D9"/>
<path d="M33.1839 44.0286L31.1784 43.9375L30.9961 47.6749L39.109 52.8708L58.1607 47.6749L58.2519 44.3932L51.5975 39.7443L33.1839 44.0286Z" fill="#699635"/>
<path d="M31.5391 41.7497C31.5391 41.7497 33.5445 45.5783 39.4697 49.0422C39.4697 49.0422 48.95 49.0423 58.3391 43.2082C58.3391 43.2082 53.1432 40.2001 51.867 36.4626C51.867 36.4626 47.9472 41.5674 31.5391 41.7497Z" fill="#83BF4F"/>
<path d="M35.6433 42.7523C35.6433 42.7523 36.0991 43.4815 34.6406 43.755L38.4692 46.7632C38.4692 46.7632 40.657 46.2162 41.3862 47.4924C41.3862 47.4924 50.5019 45.8516 54.6951 43.6638C54.6951 43.6638 53.3277 43.0257 54.6951 42.2053C54.6951 42.2053 53.0542 40.838 52.4162 39.9264C52.4162 39.9264 50.8665 40.3822 50.0461 39.2883C50.0461 39.3795 46.7644 42.2965 35.6433 42.7523Z" stroke="#699635" stroke-width="0.911565" stroke-miterlimit="10"/>
<path d="M42.6616 45.0317C42.297 45.4875 41.1119 45.6698 40.1092 45.3964C39.1065 45.1229 38.6507 44.4848 39.0153 44.029C39.38 43.5732 40.565 43.3909 41.5677 43.6644C42.5705 43.9378 43.0262 44.4848 42.6616 45.0317Z" fill="#699635"/>
<path d="M40.8438 41.0209C40.8438 41.0209 43.0315 43.9379 47.6805 47.8576L47.5893 50.5923L50.7798 49.6808L50.871 46.7638C50.871 46.7638 46.1308 42.2059 44.9458 40.0182C45.037 40.0182 43.4873 40.6563 40.8438 41.0209Z" fill="#F9F3D9"/>
<path d="M41.9301 1.82325C41.9301 7.3838 34.7287 16.4083 29.1682 16.4083C23.6076 16.4083 16.4062 8.29537 16.4062 2.73482C16.4062 -2.82573 17.2267 2.73482 22.7872 2.73482C23.6076 2.73482 27.4362 0.00012207 29.1682 0.00012207C30.3532 0.00012207 33.726 2.73482 35.5491 2.73482C40.3804 2.73482 41.9301 -2.36995 41.9301 1.82325Z" fill="#DBB471"/>
<path d="M27.526 12.1239C26.979 12.4885 24.3355 12.2151 23.5151 12.8532C22.4212 13.6736 23.9709 15.5879 22.877 16.7729C20.6892 18.9607 18.9573 21.4219 19.5042 22.7892C20.4158 25.1593 22.1477 18.4137 23.6974 20.9661C25.2471 23.5185 24.9736 19.2341 27.3437 21.4219C29.7137 23.6096 27.7083 17.5022 29.9872 20.1457C32.2661 22.7892 32.3573 25.7974 33.9981 25.7974C35.9124 25.7974 31.9926 18.596 34.545 20.328C37.0974 22.06 39.9233 21.4219 37.3709 18.7783C36.5505 17.9579 35.4566 16.4994 34.1804 15.2232C33.7246 14.7675 34.0892 12.3974 33.6335 12.0328C33.0865 11.577 31.7192 13.0355 31.1722 12.762C30.0784 12.2151 30.443 13.2178 28.8022 13.4913C27.7083 13.8559 28.6198 11.3947 27.526 12.1239Z" fill="#89664C"/>
<path d="M17.0507 17.5024C20.6058 14.1296 27.078 16.0439 30.9065 17.6847C34.6439 19.3255 36.9229 14.1296 34.5528 11.486C33.1854 9.93638 30.9977 11.7595 30.1773 12.8534C29.2657 13.9473 28.5365 15.1323 27.5337 16.2262C26.0752 17.867 22.5201 16.4996 23.614 14.2207C24.799 11.8507 29.8126 14.5854 31.4535 15.0411C34.6439 15.9527 38.0167 16.3173 41.2072 15.1323C42.3011 14.7677 41.8453 12.9445 40.7514 13.4003C37.1963 14.6765 33.6412 13.8561 30.2684 12.7622C28.5365 12.2153 25.8018 10.7568 23.9786 11.5772C18.7827 14.0384 23.614 21.0575 27.9895 18.3228C28.9922 17.6847 29.6303 16.682 30.3596 15.7704C30.8154 15.2235 33.0943 11.7595 33.6412 13.4915C33.9147 14.403 33.6412 16.0439 32.6385 16.3173C32.0004 16.5908 30.7242 15.6792 30.0861 15.4969C28.9011 15.0411 27.716 14.6765 26.4399 14.403C23.0671 13.6738 18.5092 13.8561 15.8657 16.3173C14.9541 17.0466 16.2303 18.3228 17.0507 17.5024Z" fill="#E8E8E8"/>
<path d="M40.8387 0.455905C39.9271 1.18516 38.2863 2.73482 35.5516 2.73482C33.7285 2.73482 30.3557 0.00012207 29.1707 0.00012207C27.4387 0.00012207 23.6101 2.73482 22.7897 2.73482C19.7815 2.73482 18.1407 1.18516 17.3203 0.547061C17.3203 0.547061 18.323 4.64911 21.4224 6.74571C23.7013 8.20421 23.4278 6.47224 24.6128 4.83142C25.7979 3.1906 26.6183 2.37019 28.7149 6.47224C29.8088 8.75115 31.9054 0.273592 33.5462 3.00829C36.5543 8.0219 37.6482 5.2872 40.8387 0.455905Z" fill="#89664C"/>
<path d="M47.771 47.766L47.6799 50.5007L50.8703 49.5891L50.9615 46.6721C50.9615 46.7633 49.0472 47.4925 47.771 47.766ZM45.401 53.2354V55.8789L48.9561 54.785V52.0504C48.8649 51.9592 47.9533 52.5061 45.401 53.2354ZM10.6703 53.9646L10.9438 56.517L7.7533 55.7878L7.57099 53.1442C7.47983 53.1442 8.75603 53.6 10.6703 53.9646Z" fill="#DBB471"/>
</g>
<defs>
<clipPath id="clip0_327_2138">
<rect width="58.3402" height="58.3402" fill="white"/>
</clipPath>
</defs>
</svg>
