<svg width="66" height="66" viewBox="0 0 66 66" fill="none" xmlns="http://www.w3.org/2000/svg">
<g filter="url(#filter0_d_724_420)">
<rect x="8.20703" width="49.2353" height="49.2353" rx="24.6176" fill="white"/>
<path opacity="0.2" fill-rule="evenodd" clip-rule="evenodd" d="M36.5171 11.078C35.5377 11.078 34.5985 11.467 33.906 12.1596C33.2135 12.8521 32.8244 13.7913 32.8244 14.7707V23.3868H24.2083C23.2289 23.3868 22.2897 23.7759 21.5972 24.4684C20.9047 25.1609 20.5156 26.1001 20.5156 27.0795C20.5156 28.0588 20.9047 28.9981 21.5972 29.6906C22.2897 30.3831 23.2289 30.7721 24.2083 30.7721H32.8244V39.3883C32.8244 40.3676 33.2135 41.3069 33.906 41.9994C34.5985 42.6919 35.5377 43.0809 36.5171 43.0809C37.4964 43.0809 38.4357 42.6919 39.1282 41.9994C39.8207 41.3069 40.2097 40.3676 40.2097 39.3883V30.7721H48.8259C49.8053 30.7721 50.7445 30.3831 51.437 29.6906C52.1295 28.9981 52.5186 28.0588 52.5186 27.0795C52.5186 26.1001 52.1295 25.1609 51.437 24.4684C50.7445 23.7759 49.8053 23.3868 48.8259 23.3868H40.2097V14.7707C40.2097 13.7913 39.8207 12.8521 39.1282 12.1596C38.4357 11.467 37.4964 11.078 36.5171 11.078Z" fill="black"/>
<path d="M20.5121 25.8485C20.1857 25.8485 19.8726 25.7188 19.6418 25.488C19.4109 25.2571 19.2812 24.9441 19.2812 24.6176C19.2812 24.2912 19.4109 23.9781 19.6418 23.7472C19.8726 23.5164 20.1857 23.3867 20.5121 23.3867H45.1298C45.4562 23.3867 45.7693 23.5164 46.0001 23.7472C46.231 23.9781 46.3607 24.2912 46.3607 24.6176C46.3607 24.9441 46.231 25.2571 46.0001 25.488C45.7693 25.7188 45.4562 25.8485 45.1298 25.8485H20.5121Z" fill="black"/>
<path d="M31.5898 12.3089C31.5898 11.9824 31.7195 11.6694 31.9504 11.4385C32.1812 11.2077 32.4943 11.078 32.8207 11.078C33.1472 11.078 33.4603 11.2077 33.6911 11.4385C33.9219 11.6694 34.0516 11.9824 34.0516 12.3089V36.9265C34.0516 37.253 33.9219 37.5661 33.6911 37.7969C33.4603 38.0277 33.1472 38.1574 32.8207 38.1574C32.4943 38.1574 32.1812 38.0277 31.9504 37.7969C31.7195 37.5661 31.5898 37.253 31.5898 36.9265V12.3089Z" fill="black"/>
</g>
<defs>
<filter id="filter0_d_724_420" x="0.00114918" y="0" width="65.6461" height="65.647" filterUnits="userSpaceOnUse" color-interpolation-filters="sRGB">
<feFlood flood-opacity="0" result="BackgroundImageFix"/>
<feColorMatrix in="SourceAlpha" type="matrix" values="0 0 0 0 0 0 0 0 0 0 0 0 0 0 0 0 0 0 127 0" result="hardAlpha"/>
<feOffset dy="8.20588"/>
<feGaussianBlur stdDeviation="4.10294"/>
<feComposite in2="hardAlpha" operator="out"/>
<feColorMatrix type="matrix" values="0 0 0 0 0 0 0 0 0 0 0 0 0 0 0 0 0 0 0.25 0"/>
<feBlend mode="normal" in2="BackgroundImageFix" result="effect1_dropShadow_724_420"/>
<feBlend mode="normal" in="SourceGraphic" in2="effect1_dropShadow_724_420" result="shape"/>
</filter>
</defs>
</svg>
